<svg xmlns="http://www.w3.org/2000/svg" viewBox="0 0 1280 760" role="img" aria-labelledby="title desc">
  <title id="title">Higgins Building Group after website screenshot-style preview</title>
  <desc id="desc">A screenshot-style visual of the redesigned Higgins Building Group website with a premium modern layout.</desc>
  <defs>
    <linearGradient id="screen" x1="0" y1="0" x2="1" y2="1">
      <stop offset="0" stop-color="#0b1220"/><stop offset=".55" stop-color="#111827"/><stop offset="1" stop-color="#1f2937"/>
    </linearGradient>
    <linearGradient id="home" x1="0" y1="1" x2="1" y2="0">
      <stop offset="0" stop-color="#64513d"/><stop offset=".42" stop-color="#b58d5c"/><stop offset="1" stop-color="#eef2f7"/>
    </linearGradient>
    <filter id="shadow" x="-20%" y="-20%" width="140%" height="140%">
      <feDropShadow dx="0" dy="20" stdDeviation="28" flood-color="#020617" flood-opacity=".34"/>
    </filter>
  </defs>
  <rect width="1280" height="760" rx="48" fill="#f8fafc"/>
  <rect x="0" y="0" width="1280" height="760" rx="48" fill="#dbeafe" opacity=".55"/>
  <g filter="url(#shadow)">
    <rect x="86" y="70" width="1108" height="620" rx="30" fill="url(#screen)"/>
    <rect x="86" y="70" width="1108" height="68" rx="30" fill="#0f172a"/>
    <circle cx="132" cy="104" r="9" fill="#ef4444"/><circle cx="162" cy="104" r="9" fill="#f59e0b"/><circle cx="192" cy="104" r="9" fill="#22c55e"/>
    <rect x="246" y="94" width="520" height="18" rx="9" fill="#334155"/>
    <text x="132" y="188" fill="#e2e8f0" font-family="Arial, sans-serif" font-size="20" font-weight="700">Higgins Building Group · Hickory, NC</text>
    <text x="132" y="265" fill="#ffffff" font-family="Arial, sans-serif" font-size="60" font-weight="800">Custom luxury homes,</text>
    <text x="132" y="332" fill="#ffffff" font-family="Arial, sans-serif" font-size="60" font-weight="800">built across WNC.</text>
    <rect x="132" y="377" width="182" height="54" rx="27" fill="#ffffff"/>
    <text x="166" y="411" fill="#0f172a" font-family="Arial, sans-serif" font-size="17" font-weight="700">View Our Work</text>
    <rect x="700" y="177" width="386" height="274" rx="24" fill="url(#home)"/>
    <path d="M700 380 C760 310 824 325 892 260 C961 193 1024 238 1086 166 L1086 451 L700 451 Z" fill="#111827" opacity=".28"/>
    <g transform="translate(132 514)">
      <rect width="296" height="104" rx="22" fill="#ffffff" opacity=".08"/>
      <text x="24" y="42" fill="#ffffff" font-family="Arial, sans-serif" font-size="18" font-weight="700">Modernized brand</text>
      <text x="24" y="74" fill="#94a3b8" font-family="Arial, sans-serif" font-size="15">Premium, clean, credible</text>
    </g>
    <g transform="translate(468 514)">
      <rect width="296" height="104" rx="22" fill="#ffffff" opacity=".08"/>
      <text x="24" y="42" fill="#ffffff" font-family="Arial, sans-serif" font-size="18" font-weight="700">Improved UX</text>
      <text x="24" y="74" fill="#94a3b8" font-family="Arial, sans-serif" font-size="15">Clear navigation and CTAs</text>
    </g>
    <g transform="translate(804 514)">
      <rect width="296" height="104" rx="22" fill="#ffffff" opacity=".08"/>
      <text x="24" y="42" fill="#ffffff" font-family="Arial, sans-serif" font-size="18" font-weight="700">Built for Vercel</text>
      <text x="24" y="74" fill="#94a3b8" font-family="Arial, sans-serif" font-size="15">Fast deployment workflow</text>
    </g>
  </g>
</svg>
