<svg xmlns="http://www.w3.org/2000/svg" viewBox="0 0 1280 760" role="img" aria-labelledby="title desc">
  <title id="title">Higgins Building Group website transformation</title>
  <desc id="desc">A before and after showcase graphic showing the dated old site next to the redesigned modern site.</desc>
  <defs>
    <linearGradient id="night" x1="0" y1="0" x2="1" y2="1"><stop offset="0" stop-color="#06111f"/><stop offset="1" stop-color="#123c6a"/></linearGradient>
    <linearGradient id="blue" x1="0" y1="0" x2="1" y2="1"><stop offset="0" stop-color="#0ea5e9"/><stop offset="1" stop-color="#1d4ed8"/></linearGradient>
    <filter id="shadow" x="-20%" y="-20%" width="140%" height="140%"><feDropShadow dx="0" dy="22" stdDeviation="30" flood-color="#020617" flood-opacity=".25"/></filter>
  </defs>
  <rect width="1280" height="760" rx="48" fill="url(#night)"/>
  <circle cx="1110" cy="90" r="190" fill="#38bdf8" opacity=".14"/>
  <circle cx="130" cy="690" r="260" fill="#2563eb" opacity=".15"/>
  <text x="80" y="102" fill="#ffffff" font-family="Arial, sans-serif" font-size="44" font-weight="800">Before → After Website Transformation</text>
  <text x="82" y="144" fill="#cbd5e1" font-family="Arial, sans-serif" font-size="20">A premium rebuild for Higgins Building Group, designed to replace a dated layout with a modern client-facing experience.</text>
  <g filter="url(#shadow)">
    <g transform="translate(88 210)">
      <rect width="496" height="378" rx="30" fill="#f8fafc"/>
      <rect width="496" height="58" rx="30" fill="#e2e8f0"/>
      <circle cx="38" cy="30" r="7" fill="#ef4444"/><circle cx="64" cy="30" r="7" fill="#f59e0b"/><circle cx="90" cy="30" r="7" fill="#22c55e"/>
      <rect x="36" y="94" width="118" height="238" rx="12" fill="#e5e7eb"/>
      <rect x="186" y="94" width="254" height="92" rx="14" fill="#cbd5e1"/>
      <rect x="186" y="218" width="220" height="18" rx="9" fill="#334155"/>
      <rect x="186" y="254" width="250" height="12" rx="6" fill="#94a3b8"/>
      <rect x="186" y="280" width="220" height="12" rx="6" fill="#94a3b8"/>
      <text x="34" y="428" fill="#ffffff" font-family="Arial, sans-serif" font-size="0"> </text>
    </g>
    <g transform="translate(696 210)">
      <rect width="496" height="378" rx="30" fill="#0f172a"/>
      <rect width="496" height="58" rx="30" fill="#111827"/>
      <circle cx="38" cy="30" r="7" fill="#ef4444"/><circle cx="64" cy="30" r="7" fill="#f59e0b"/><circle cx="90" cy="30" r="7" fill="#22c55e"/>
      <text x="44" y="122" fill="#e2e8f0" font-family="Arial, sans-serif" font-size="16" font-weight="700">Custom Home Builders · Hickory, NC</text>
      <text x="44" y="178" fill="#ffffff" font-family="Arial, sans-serif" font-size="42" font-weight="800">Custom luxury</text>
      <text x="44" y="226" fill="#ffffff" font-family="Arial, sans-serif" font-size="42" font-weight="800">homes across WNC</text>
      <rect x="44" y="264" width="150" height="42" rx="21" fill="#ffffff"/>
      <text x="72" y="291" fill="#0f172a" font-family="Arial, sans-serif" font-size="14" font-weight="700">Begin a Project</text>
      <rect x="298" y="92" width="156" height="214" rx="18" fill="url(#blue)" opacity=".95"/>
    </g>
  </g>
  <path d="M610 392h52" stroke="#93c5fd" stroke-width="16" stroke-linecap="round"/><path d="M654 360l38 32-38 32" fill="none" stroke="#93c5fd" stroke-width="16" stroke-linecap="round" stroke-linejoin="round"/>
  <g font-family="Arial, sans-serif" font-weight="800" font-size="18">
    <rect x="252" y="622" width="168" height="48" rx="24" fill="#ffffff" opacity=".12"/><text x="304" y="653" fill="#ffffff">BEFORE</text>
    <rect x="854" y="622" width="168" height="48" rx="24" fill="#38bdf8" opacity=".26"/><text x="916" y="653" fill="#ffffff">AFTER</text>
  </g>
</svg>
